<mxfile host="app.diagrams.net" modified="2024-03-27T16:47:46.439Z" agent="Mozilla/5.0 (Windows NT 10.0; Win64; x64) AppleWebKit/537.36 (KHTML, like Gecko) Chrome/123.0.0.0 Safari/537.36" etag="DuPwXrKEHXSRm1-G7yNt" version="24.0.5" type="device">
  <diagram name="Page-1" id="tEz7BlBOFhRKTC8Uuyk8">
    <mxGraphModel dx="1071" dy="586" grid="1" gridSize="10" guides="1" tooltips="1" connect="1" arrows="1" fold="1" page="1" pageScale="1" pageWidth="850" pageHeight="1100" math="0" shadow="0">
      <root>
        <mxCell id="0" />
        <mxCell id="1" parent="0" />
        <mxCell id="blHYdfj4ArS0nP_ltKE5-1" value="" style="rounded=0;whiteSpace=wrap;html=1;" vertex="1" parent="1">
          <mxGeometry x="170" y="150" width="540" height="300" as="geometry" />
        </mxCell>
        <mxCell id="blHYdfj4ArS0nP_ltKE5-2" value="месяц" style="rounded=1;whiteSpace=wrap;html=1;fillColor=#e1d5e7;strokeColor=#9673a6;" vertex="1" parent="1">
          <mxGeometry x="200" y="180" width="80" height="50" as="geometry" />
        </mxCell>
        <mxCell id="blHYdfj4ArS0nP_ltKE5-6" value="магазин" style="rounded=1;whiteSpace=wrap;html=1;fillColor=#dae8fc;strokeColor=#6c8ebf;" vertex="1" parent="1">
          <mxGeometry x="300" y="180" width="80" height="50" as="geometry" />
        </mxCell>
        <mxCell id="blHYdfj4ArS0nP_ltKE5-7" value="кол" style="rounded=1;whiteSpace=wrap;html=1;fillColor=#fff2cc;strokeColor=#d6b656;" vertex="1" parent="1">
          <mxGeometry x="400" y="180" width="80" height="50" as="geometry" />
        </mxCell>
        <mxCell id="blHYdfj4ArS0nP_ltKE5-8" value="цена" style="rounded=1;whiteSpace=wrap;html=1;fillColor=#d5e8d4;strokeColor=#82b366;" vertex="1" parent="1">
          <mxGeometry x="510" y="180" width="80" height="50" as="geometry" />
        </mxCell>
        <mxCell id="blHYdfj4ArS0nP_ltKE5-10" value="категория" style="rounded=1;whiteSpace=wrap;html=1;fillColor=#f8cecc;strokeColor=#b85450;" vertex="1" parent="1">
          <mxGeometry x="610" y="180" width="80" height="50" as="geometry" />
        </mxCell>
        <mxCell id="blHYdfj4ArS0nP_ltKE5-16" value="1" style="rounded=1;whiteSpace=wrap;html=1;fillColor=#e1d5e7;strokeColor=#9673a6;" vertex="1" parent="1">
          <mxGeometry x="200" y="240" width="80" height="50" as="geometry" />
        </mxCell>
        <mxCell id="blHYdfj4ArS0nP_ltKE5-17" value="Умка" style="rounded=1;whiteSpace=wrap;html=1;fillColor=#dae8fc;strokeColor=#6c8ebf;" vertex="1" parent="1">
          <mxGeometry x="300" y="240" width="80" height="50" as="geometry" />
        </mxCell>
        <mxCell id="blHYdfj4ArS0nP_ltKE5-18" value="10" style="rounded=1;whiteSpace=wrap;html=1;fillColor=#fff2cc;strokeColor=#d6b656;" vertex="1" parent="1">
          <mxGeometry x="400" y="240" width="80" height="50" as="geometry" />
        </mxCell>
        <mxCell id="blHYdfj4ArS0nP_ltKE5-19" value="1000" style="rounded=1;whiteSpace=wrap;html=1;fillColor=#d5e8d4;strokeColor=#82b366;" vertex="1" parent="1">
          <mxGeometry x="510" y="240" width="80" height="50" as="geometry" />
        </mxCell>
        <mxCell id="blHYdfj4ArS0nP_ltKE5-20" value="сладости" style="rounded=1;whiteSpace=wrap;html=1;fillColor=#f8cecc;strokeColor=#b85450;" vertex="1" parent="1">
          <mxGeometry x="610" y="240" width="80" height="50" as="geometry" />
        </mxCell>
        <mxCell id="blHYdfj4ArS0nP_ltKE5-21" value="1" style="rounded=1;whiteSpace=wrap;html=1;fillColor=#e1d5e7;strokeColor=#9673a6;" vertex="1" parent="1">
          <mxGeometry x="200" y="300" width="80" height="50" as="geometry" />
        </mxCell>
        <mxCell id="blHYdfj4ArS0nP_ltKE5-22" value="Умка" style="rounded=1;whiteSpace=wrap;html=1;fillColor=#dae8fc;strokeColor=#6c8ebf;" vertex="1" parent="1">
          <mxGeometry x="300" y="300" width="80" height="50" as="geometry" />
        </mxCell>
        <mxCell id="blHYdfj4ArS0nP_ltKE5-23" value="20" style="rounded=1;whiteSpace=wrap;html=1;fillColor=#fff2cc;strokeColor=#d6b656;" vertex="1" parent="1">
          <mxGeometry x="400" y="300" width="80" height="50" as="geometry" />
        </mxCell>
        <mxCell id="blHYdfj4ArS0nP_ltKE5-24" value="10000" style="rounded=1;whiteSpace=wrap;html=1;fillColor=#d5e8d4;strokeColor=#82b366;" vertex="1" parent="1">
          <mxGeometry x="510" y="300" width="80" height="50" as="geometry" />
        </mxCell>
        <mxCell id="blHYdfj4ArS0nP_ltKE5-25" value="алколь" style="rounded=1;whiteSpace=wrap;html=1;fillColor=#f8cecc;strokeColor=#b85450;" vertex="1" parent="1">
          <mxGeometry x="610" y="300" width="80" height="50" as="geometry" />
        </mxCell>
        <mxCell id="blHYdfj4ArS0nP_ltKE5-27" value="1" style="rounded=1;whiteSpace=wrap;html=1;fillColor=#e1d5e7;strokeColor=#9673a6;" vertex="1" parent="1">
          <mxGeometry x="610" y="680" width="80" height="50" as="geometry" />
        </mxCell>
        <mxCell id="blHYdfj4ArS0nP_ltKE5-28" value="Нужно за месяц, по каждому магазину в одну строчку вывести данные, но каждую категорию нужно вывести не отдельным строками, а в одной" style="text;html=1;align=center;verticalAlign=middle;whiteSpace=wrap;rounded=0;fontStyle=1" vertex="1" parent="1">
          <mxGeometry x="205" y="470" width="470" height="40" as="geometry" />
        </mxCell>
        <mxCell id="blHYdfj4ArS0nP_ltKE5-29" value="Умка" style="rounded=1;whiteSpace=wrap;html=1;fillColor=#dae8fc;strokeColor=#6c8ebf;" vertex="1" parent="1">
          <mxGeometry x="710" y="680" width="80" height="50" as="geometry" />
        </mxCell>
        <mxCell id="blHYdfj4ArS0nP_ltKE5-30" value="10 * 1000" style="rounded=1;whiteSpace=wrap;html=1;fillColor=#fff2cc;strokeColor=#d6b656;" vertex="1" parent="1">
          <mxGeometry x="810" y="680" width="80" height="50" as="geometry" />
        </mxCell>
        <mxCell id="blHYdfj4ArS0nP_ltKE5-31" value="сладости" style="rounded=1;whiteSpace=wrap;html=1;fillColor=#f8cecc;strokeColor=#b85450;" vertex="1" parent="1">
          <mxGeometry x="810" y="620" width="80" height="50" as="geometry" />
        </mxCell>
        <mxCell id="blHYdfj4ArS0nP_ltKE5-34" value="20 * 10000" style="rounded=1;whiteSpace=wrap;html=1;fillColor=#fff2cc;strokeColor=#d6b656;" vertex="1" parent="1">
          <mxGeometry x="920" y="680" width="80" height="50" as="geometry" />
        </mxCell>
        <mxCell id="blHYdfj4ArS0nP_ltKE5-35" value="алколь" style="rounded=1;whiteSpace=wrap;html=1;fillColor=#f8cecc;strokeColor=#b85450;" vertex="1" parent="1">
          <mxGeometry x="920" y="620" width="80" height="50" as="geometry" />
        </mxCell>
        <mxCell id="blHYdfj4ArS0nP_ltKE5-37" value="1" style="rounded=1;whiteSpace=wrap;html=1;fillColor=#e1d5e7;strokeColor=#9673a6;" vertex="1" parent="1">
          <mxGeometry x="30" y="570" width="80" height="50" as="geometry" />
        </mxCell>
        <mxCell id="blHYdfj4ArS0nP_ltKE5-38" value="Умка" style="rounded=1;whiteSpace=wrap;html=1;fillColor=#dae8fc;strokeColor=#6c8ebf;" vertex="1" parent="1">
          <mxGeometry x="130" y="570" width="80" height="50" as="geometry" />
        </mxCell>
        <mxCell id="blHYdfj4ArS0nP_ltKE5-39" value="10 * 1000" style="rounded=1;whiteSpace=wrap;html=1;fillColor=#fff2cc;strokeColor=#d6b656;" vertex="1" parent="1">
          <mxGeometry x="230" y="570" width="80" height="50" as="geometry" />
        </mxCell>
        <mxCell id="blHYdfj4ArS0nP_ltKE5-40" value="сладости" style="rounded=1;whiteSpace=wrap;html=1;fillColor=#f8cecc;strokeColor=#b85450;" vertex="1" parent="1">
          <mxGeometry x="330" y="570" width="80" height="50" as="geometry" />
        </mxCell>
        <mxCell id="blHYdfj4ArS0nP_ltKE5-41" value="20 * 10000" style="rounded=1;whiteSpace=wrap;html=1;fillColor=#fff2cc;strokeColor=#d6b656;" vertex="1" parent="1">
          <mxGeometry x="230" y="630" width="80" height="50" as="geometry" />
        </mxCell>
        <mxCell id="blHYdfj4ArS0nP_ltKE5-42" value="алколь" style="rounded=1;whiteSpace=wrap;html=1;fillColor=#f8cecc;strokeColor=#b85450;" vertex="1" parent="1">
          <mxGeometry x="330" y="630" width="80" height="50" as="geometry" />
        </mxCell>
        <mxCell id="blHYdfj4ArS0nP_ltKE5-43" value="1" style="rounded=1;whiteSpace=wrap;html=1;fillColor=#e1d5e7;strokeColor=#9673a6;" vertex="1" parent="1">
          <mxGeometry x="30" y="630" width="80" height="50" as="geometry" />
        </mxCell>
        <mxCell id="blHYdfj4ArS0nP_ltKE5-44" value="Умка" style="rounded=1;whiteSpace=wrap;html=1;fillColor=#dae8fc;strokeColor=#6c8ebf;" vertex="1" parent="1">
          <mxGeometry x="130" y="630" width="80" height="50" as="geometry" />
        </mxCell>
        <mxCell id="blHYdfj4ArS0nP_ltKE5-45" value="хлеб" style="rounded=1;whiteSpace=wrap;html=1;fillColor=#f8cecc;strokeColor=#b85450;" vertex="1" parent="1">
          <mxGeometry x="1030" y="620" width="80" height="50" as="geometry" />
        </mxCell>
        <mxCell id="blHYdfj4ArS0nP_ltKE5-47" value="0" style="rounded=1;whiteSpace=wrap;html=1;fillColor=#fff2cc;strokeColor=#d6b656;" vertex="1" parent="1">
          <mxGeometry x="1030" y="680" width="80" height="50" as="geometry" />
        </mxCell>
        <mxCell id="blHYdfj4ArS0nP_ltKE5-48" value="0 * 500" style="rounded=1;whiteSpace=wrap;html=1;fillColor=#fff2cc;strokeColor=#d6b656;" vertex="1" parent="1">
          <mxGeometry x="230" y="690" width="80" height="50" as="geometry" />
        </mxCell>
        <mxCell id="blHYdfj4ArS0nP_ltKE5-49" value="хлеб" style="rounded=1;whiteSpace=wrap;html=1;fillColor=#f8cecc;strokeColor=#b85450;" vertex="1" parent="1">
          <mxGeometry x="330" y="690" width="80" height="50" as="geometry" />
        </mxCell>
        <mxCell id="blHYdfj4ArS0nP_ltKE5-50" value="1" style="rounded=1;whiteSpace=wrap;html=1;fillColor=#e1d5e7;strokeColor=#9673a6;" vertex="1" parent="1">
          <mxGeometry x="30" y="690" width="80" height="50" as="geometry" />
        </mxCell>
        <mxCell id="blHYdfj4ArS0nP_ltKE5-51" value="Умка" style="rounded=1;whiteSpace=wrap;html=1;fillColor=#dae8fc;strokeColor=#6c8ebf;" vertex="1" parent="1">
          <mxGeometry x="130" y="690" width="80" height="50" as="geometry" />
        </mxCell>
        <mxCell id="blHYdfj4ArS0nP_ltKE5-52" value="" style="shape=step;perimeter=stepPerimeter;whiteSpace=wrap;html=1;fixedSize=1;fillColor=#dae8fc;strokeColor=#6c8ebf;" vertex="1" parent="1">
          <mxGeometry x="450" y="600" width="130" height="90" as="geometry" />
        </mxCell>
        <mxCell id="blHYdfj4ArS0nP_ltKE5-53" value="Умка" style="rounded=1;whiteSpace=wrap;html=1;fillColor=#dae8fc;strokeColor=#6c8ebf;" vertex="1" parent="1">
          <mxGeometry x="300" y="360" width="80" height="50" as="geometry" />
        </mxCell>
        <mxCell id="blHYdfj4ArS0nP_ltKE5-54" value="2" style="rounded=1;whiteSpace=wrap;html=1;fillColor=#e1d5e7;strokeColor=#9673a6;" vertex="1" parent="1">
          <mxGeometry x="205" y="360" width="80" height="50" as="geometry" />
        </mxCell>
        <mxCell id="blHYdfj4ArS0nP_ltKE5-55" value="10" style="rounded=1;whiteSpace=wrap;html=1;fillColor=#fff2cc;strokeColor=#d6b656;" vertex="1" parent="1">
          <mxGeometry x="400" y="360" width="80" height="50" as="geometry" />
        </mxCell>
        <mxCell id="blHYdfj4ArS0nP_ltKE5-56" value="сладости" style="rounded=1;whiteSpace=wrap;html=1;fillColor=#f8cecc;strokeColor=#b85450;" vertex="1" parent="1">
          <mxGeometry x="610" y="360" width="80" height="50" as="geometry" />
        </mxCell>
        <mxCell id="blHYdfj4ArS0nP_ltKE5-57" value="1000" style="rounded=1;whiteSpace=wrap;html=1;fillColor=#d5e8d4;strokeColor=#82b366;" vertex="1" parent="1">
          <mxGeometry x="510" y="360" width="80" height="50" as="geometry" />
        </mxCell>
        <mxCell id="blHYdfj4ArS0nP_ltKE5-58" value="2" style="rounded=1;whiteSpace=wrap;html=1;fillColor=#e1d5e7;strokeColor=#9673a6;" vertex="1" parent="1">
          <mxGeometry x="30" y="750" width="80" height="50" as="geometry" />
        </mxCell>
        <mxCell id="blHYdfj4ArS0nP_ltKE5-59" value="Умка" style="rounded=1;whiteSpace=wrap;html=1;fillColor=#dae8fc;strokeColor=#6c8ebf;" vertex="1" parent="1">
          <mxGeometry x="130" y="750" width="80" height="50" as="geometry" />
        </mxCell>
        <mxCell id="blHYdfj4ArS0nP_ltKE5-60" value="10 * 1000" style="rounded=1;whiteSpace=wrap;html=1;fillColor=#fff2cc;strokeColor=#d6b656;" vertex="1" parent="1">
          <mxGeometry x="230" y="750" width="80" height="50" as="geometry" />
        </mxCell>
        <mxCell id="blHYdfj4ArS0nP_ltKE5-61" value="сладости" style="rounded=1;whiteSpace=wrap;html=1;fillColor=#f8cecc;strokeColor=#b85450;" vertex="1" parent="1">
          <mxGeometry x="330" y="750" width="80" height="50" as="geometry" />
        </mxCell>
        <mxCell id="blHYdfj4ArS0nP_ltKE5-62" value="2" style="rounded=1;whiteSpace=wrap;html=1;fillColor=#e1d5e7;strokeColor=#9673a6;" vertex="1" parent="1">
          <mxGeometry x="610" y="740" width="80" height="50" as="geometry" />
        </mxCell>
        <mxCell id="blHYdfj4ArS0nP_ltKE5-63" value="Умка" style="rounded=1;whiteSpace=wrap;html=1;fillColor=#dae8fc;strokeColor=#6c8ebf;" vertex="1" parent="1">
          <mxGeometry x="710" y="740" width="80" height="50" as="geometry" />
        </mxCell>
        <mxCell id="blHYdfj4ArS0nP_ltKE5-64" value="10 * 1000" style="rounded=1;whiteSpace=wrap;html=1;fillColor=#fff2cc;strokeColor=#d6b656;" vertex="1" parent="1">
          <mxGeometry x="810" y="740" width="80" height="50" as="geometry" />
        </mxCell>
        <mxCell id="blHYdfj4ArS0nP_ltKE5-65" value="0" style="rounded=1;whiteSpace=wrap;html=1;fillColor=#fff2cc;strokeColor=#d6b656;" vertex="1" parent="1">
          <mxGeometry x="920" y="740" width="80" height="50" as="geometry" />
        </mxCell>
        <mxCell id="blHYdfj4ArS0nP_ltKE5-66" value="0" style="rounded=1;whiteSpace=wrap;html=1;fillColor=#fff2cc;strokeColor=#d6b656;" vertex="1" parent="1">
          <mxGeometry x="1030" y="740" width="80" height="50" as="geometry" />
        </mxCell>
      </root>
    </mxGraphModel>
  </diagram>
</mxfile>
